<mxfile host="app.diagrams.net" modified="2023-05-29T08:02:53.966Z" agent="Mozilla/5.0 (Macintosh; Intel Mac OS X 10_15_7) AppleWebKit/537.36 (KHTML, like Gecko) Chrome/113.0.0.0 Safari/537.36" version="21.2.9" etag="FJokshIDuT_xWCYrwaMw" type="github">
  <diagram name="第 1 页" id="syiM_yleGJ8HOB4GZRZs">
    <mxGraphModel>
      <root>
        <mxCell id="0" />
        <mxCell id="1" parent="0" />
      </root>
    </mxGraphModel>
  </diagram>
</mxfile>
